PathFileType	4	(X/Y/Z)	C:\Users\Biomechanik\SynologyDrive\AlexP\Athlete_03\Athlete_3_22_07_06\sq_90_EMG\marker_experimental.trc																																																																																																																																																																															
DataRate	CameraRate	NumFrames	NumMarkers	Units	OrigDataRate	OrigDataStartFrame	OrigNumFrames																																																																																																																																																																											
200	200	4	59	mm	200	0	1384																																																																																																																																																																											
Frame#	Time	BL			BR			GLAB			RFHD			LFHD			C7			T6			SPINMOL			SPINM2			SPINM3			T12			BELTOL			BELT2			BELT3			SACROL			SACR2			SACR3			LTHOL			LTH2			LTH3			LSHAOL			LSHA2			LSHA3			LHEE			LTOE			LM5			RTHOL			RTH2			RTH3			RSHAOL			RSHA2			RSHA3			RHEE			RTOE			RM5			STRN			XIPH			LACR			LUAOL			LUA2			LUA3			LLAOL			LLA2			LLA3			LWRU			RACR			RUAOL			RUA3			RLAOL			RLA2			RLA3			RWRU			RUA2			USERMO0			USERMO1			USERMO2			USERMO3			USERMO4			USERMO5		
		X1	Y1	Z1	X2	Y2	Z2	X3	Y3	Z3	X4	Y4	Z4	X5	Y5	Z5	X6	Y6	Z6	X7	Y7	Z7	X8	Y8	Z8	X9	Y9	Z9	X10	Y10	Z10	X11	Y11	Z11	X12	Y12	Z12	X13	Y13	Z13	X14	Y14	Z14	X15	Y15	Z15	X16	Y16	Z16	X17	Y17	Z17	X18	Y18	Z18	X19	Y19	Z19	X20	Y20	Z20	X21	Y21	Z21	X22	Y22	Z22	X23	Y23	Z23	X24	Y24	Z24	X25	Y25	Z25	X26	Y26	Z26	X27	Y27	Z27	X28	Y28	Z28	X29	Y29	Z29	X30	Y30	Z30	X31	Y31	Z31	X32	Y32	Z32	X33	Y33	Z33	X34	Y34	Z34	X35	Y35	Z35	X36	Y36	Z36	X37	Y37	Z37	X38	Y38	Z38	X39	Y39	Z39	X40	Y40	Z40	X41	Y41	Z41	X42	Y42	Z42	X43	Y43	Z43	X44	Y44	Z44	X45	Y45	Z45	X46	Y46	Z46	X47	Y47	Z47	X48	Y48	Z48	X49	Y49	Z49	X50	Y50	Z50	X51	Y51	Z51	X52	Y52	Z52	X53	Y53	Z53	X54	Y54	Z54	X55	Y55	Z55	X56	Y56	Z56	X57	Y57	Z57	X58	Y58	Z58	X59	Y59	Z59
																																																																																																																																																																																		
1	0	120.1161804	1219.156372	-2307.499268	183.6091614	1312.361572	-88.28342438	530.8066406	1391.072998	-1190.773193	475.2365417	1423.879272	-1116.974487	477.049408	1419.491943	-1271.202759	263.8616943	1370.10144	-1192.25708	99.17103577	1247.860107	-1193.853516	77.76599121	1219.757568	-1195.907471	41.54687881	1167.895264	-1147.03772	52.45007324	1163.275146	-1195.512695	34.13367081	1108.60791	-1191.656616	-2.721309662	1072.111328	-1189.809326	-15.04508686	1013.940613	-1136.799805	-19.79034615	1012.612183	-1186.692993	-25.34261322	935.5719604	-1212.237549	-16.88838387	945.7481689	-1162.80603	-48.05992126	888.0343628	-1172.294922	99.44099426	726.7990112	-1437.901367	61.03047943	657.0422363	-1429.898071	106.3074188	666.3010254	-1450.129761	86.69747162	326.896759	-1532.26001	55.5104332	254.3100433	-1535.458374	101.2394943	268.7706604	-1548.946777	58.37682343	37.23145294	-1517.476074	263.1470032	48.59473801	-1558.525513	206.5428467	23.89052963	-1657.04895	71.63463593	698.3258667	-938.9482422	109.847084	636.5952148	-904.6133423	65.55949402	636.914978	-928.5181885	38.2637558	315.557251	-852.1397095	83.81482697	260.1740112	-817.9907837	41.62025833	254.6192169	-844.4576416	47.01392365	34.33927917	-874.8670654	240.9822083	44.59533691	-793.9273071	170.3175201	37.78231812	-710.7539673	339.4075012	1217.665771	-1197.579468	306.5409546	1069.575562	-1186.032837	214.1805115	1310.807495	-1376.0448	77.19034576	1228.393311	-1395.950317	42.44412231	1190.334839	-1355.165649	39.59376526	1186.510742	-1405.734375	25.13998032	1149.414673	-1482.164917	69.784729	1160.815918	-1528.061279	69.27761841	1194.64624	-1490.828735	120.0043182	1233.444458	-1544.481689	238.1437988	1321.046387	-1013.226135	105.2514648	1227.870605	-968.6769409	45.0598259	1209.050781	-975.071167	53.41440964	1193.759033	-893.3578491	103.8408737	1233.647949	-900.7518921	95.65248108	1217.598022	-852.5812378	131.4701843	1250.808472	-830.4443359	nan	nan	nan	0	0.0027536	1.69E-19	0.00481194	0.0123469	-0.0308307	0.0112841	0.00441396	-0.00484479	0.0217741	0.030336799	-0.00978996	0	1.488289952	-0.146066993	1.57912004	0	0
2	0.005	120.1558609	1219.118652	-2307.480957	183.5854492	1312.30835	-88.26701355	530.8269653	1391.091064	-1190.77478	475.2561646	1423.882568	-1116.967773	477.0487976	1419.50061	-1271.195679	263.8902588	1370.081787	-1192.223633	99.29666138	1247.847778	-1193.799561	77.78397369	1219.76416	-1195.892578	41.55580521	1167.906738	-1147.024658	52.45780945	1163.286011	-1195.498169	34.13851166	1108.619263	-1191.638916	-2.719654083	1072.126465	-1189.793701	-15.05419827	1013.957031	-1136.781372	-19.79830742	1012.628662	-1186.67627	-25.36080742	935.5956421	-1212.223511	-16.89362526	945.7666016	-1162.784302	-48.0810051	888.0650635	-1172.272949	99.38897705	726.7969971	-1437.873657	60.94960022	657.0516357	-1429.870483	106.2381363	666.2971802	-1450.102173	86.59881592	326.8846741	-1532.219482	55.4360466	254.2879486	-1535.419312	101.1565933	268.7641602	-1548.914551	58.3718338	37.22695923	-1517.477783	263.14505	48.59566879	-1558.526001	206.5409546	23.88963699	-1657.045776	71.58992767	698.3167114	-938.9227295	109.7854309	636.5889282	-904.5935059	65.50141144	636.9145508	-928.4981079	38.21507645	315.5477295	-852.1378174	83.76899719	260.1665649	-817.9837036	41.57984543	254.605835	-844.4563599	47.01144028	34.33657455	-874.8636475	240.9771271	44.59568405	-793.9228516	170.3136292	37.77693176	-710.7487183	339.4286499	1217.62793	-1197.547974	306.540741	1069.546387	-1185.994385	214.2014313	1310.776978	-1376.02124	77.21588898	1228.36438	-1395.938232	42.4657402	1190.306152	-1355.156128	39.61610794	1186.47998	-1405.725342	25.16436005	1149.390991	-1482.151245	69.813591	1160.789917	-1528.0448	69.34426117	1194.610474	-1490.808472	120.0333252	1233.446777	-1544.44519	238.154541	1321.02063	-1013.204895	105.2772598	1227.831543	-968.6795044	45.05887604	1209.033447	-975.0595703	53.4168129	1193.738159	-893.3478394	103.846405	1233.624146	-900.7376099	95.65782928	1217.575439	-852.5692749	131.4753265	1250.78064	-830.4283447	nan	nan	nan	0	0.00370198	2.27E-19	0.00538402	0.0209645	-0.036433902	0.0134678	0.00947017	-0.0068195	0.0281731	0.053764299	-0.125529006	0.00165493	1.656610012	-0.165861994	1.743469954	0	0
3	0.01	120.2027817	1219.07666	-2307.460449	183.5596313	1312.24707	-88.24806976	530.8488159	1391.110107	-1190.774902	475.276886	1423.885376	-1116.959839	477.0483704	1419.51001	-1271.187012	263.9211731	1370.058838	-1192.187134	99.4272995	1247.834717	-1193.743408	77.80404663	1219.771484	-1195.875977	41.56558609	1167.919556	-1147.009766	52.46599197	1163.29834	-1195.481934	34.14349365	1108.63208	-1191.618774	-2.717837572	1072.143555	-1189.775757	-15.06503963	1013.975586	-1136.760254	-19.80794334	1012.647156	-1186.656982	-25.38057327	935.621521	-1212.205811	-16.9000988	945.7872314	-1162.759033	-48.10546494	888.0994263	-1172.246826	99.32769012	726.7946167	-1437.841919	60.85667419	657.0616455	-1429.838501	106.1576157	666.2928467	-1450.070923	86.48667908	326.8711243	-1532.174438	55.35154724	254.263031	-1535.375732	101.0624161	268.7566833	-1548.878662	58.36646271	37.22191238	-1517.479614	263.1427307	48.59673691	-1558.526855	206.538681	23.88848686	-1657.042114	71.54257202	698.3063965	-938.8917236	109.719635	636.581543	-904.5712891	65.43852234	636.9143066	-928.4730225	38.16268921	315.5372009	-852.1339722	83.72002411	260.1583862	-817.9749146	41.53574753	254.5908051	-844.4534302	47.00896835	34.33363342	-874.8597412	240.9714966	44.59569168	-793.9177246	170.3091888	37.77069473	-710.7426758	339.4522095	1217.584839	-1197.513184	306.5404358	1069.512451	-1185.952271	214.2242279	1310.742432	-1375.994751	77.24398804	1228.331787	-1395.924561	42.48986816	1190.27417	-1355.145386	39.64103699	1186.445435	-1405.714966	25.19188499	1149.36377	-1482.13562	69.84564972	1160.760254	-1528.026245	69.41719818	1194.569946	-1490.786011	120.0666275	1233.447266	-1544.405396	238.1664276	1320.991211	-1013.181274	105.3045654	1227.788574	-968.6804199	45.05807495	1209.012207	-975.0457764	53.41994858	1193.712891	-893.3361206	103.8526459	1233.596436	-900.7211304	95.66403198	1217.548828	-852.555603	131.4815063	1250.748291	-830.4101562	nan	nan	nan	0.00546249	0.00464226	2.84E-19	0.00595744	0.029192099	-0.042154301	0.015653901	0.0145485	-0.00884965	0.0349865	0.076634303	-0.235747993	0.047712401	1.823140025	-0.185853004	1.905329943	0	0
4	0.015	120.2569427	1219.030762	-2307.4375	183.5323792	1312.178345	-88.22672272	530.871521	1391.129883	-1190.773315	475.2980347	1423.887329	-1116.950439	477.0480957	1419.520142	-1271.176758	263.9536133	1370.032471	-1192.14856	99.55796814	1247.821167	-1193.687012	77.82585907	1219.779419	-1195.857788	41.57601547	1167.933716	-1146.993408	52.47437668	1163.312012	-1195.464233	34.1484375	1108.645874	-1191.596313	-2.715875626	1072.162231	-1189.755493	-15.07759285	1013.996155	-1136.736572	-19.8192749	1012.667419	-1186.63501	-25.40143013	935.6491699	-1212.184204	-16.90785027	945.8097534	-1162.730225	-48.13308716	888.1367798	-1172.216553	99.2572937	726.7919922	-1437.806519	60.75238419	657.0719604	-1429.80249	106.0663757	666.288147	-1450.036377	86.36248779	326.8563232	-1532.125977	55.25803375	254.2356567	-1535.328613	100.958168	268.7483521	-1548.839844	58.36084366	37.21640778	-1517.481812	263.1401062	48.59794235	-1558.528198	206.5359955	23.88705063	-1657.03833	71.49414825	698.2949829	-938.8549194	109.6518097	636.5730591	-904.546936	65.37249756	636.9143677	-928.4424438	38.10804749	315.5258484	-852.1276245	83.66941071	260.1496277	-817.9641724	41.48902512	254.5743256	-844.4483643	47.00665283	34.33054352	-874.8553467	240.9654388	44.59525299	-793.9121094	170.3042297	37.76366425	-710.7358398	339.4778137	1217.536987	-1197.475464	306.5400696	1069.473999	-1185.907227	214.2483673	1310.704224	-1375.965698	77.27407074	1228.296021	-1395.909668	42.5161171	1190.23938	-1355.133423	39.6681366	1186.407715	-1405.703247	25.2219677	1149.333374	-1482.118286	69.88031769	1160.727295	-1528.005615	69.49458313	1194.525513	-1490.761841	120.10392	1233.444946	-1544.363281	238.1791687	1320.95874	-1013.155701	105.3322983	1227.742432	-968.6790161	45.05755997	1208.986938	-975.0296631	53.42392349	1193.68335	-893.3226929	103.8595886	1233.564697	-900.7026978	95.67108917	1217.518066	-852.5403442	131.4887543	1250.711304	-830.3900146	nan	nan	nan	0.0119607	0.0055502	3.40E-19	0.00651225	0.036768399	-0.0478523	0.017799299	0.0195437	-0.0109061	0.0421069	0.0984824	-0.338205993	0.090434797	1.982980013	-0.205465004	2.0599401	0	0
